<?xml version="1.0" encoding="UTF-8" standalone="no"?><!-- Generator: Gravit.io --><svg xmlns="http://www.w3.org/2000/svg" xmlns:xlink="http://www.w3.org/1999/xlink" style="isolation:isolate" viewBox="0 0 13.823 22.148" width="13.823pt" height="22.148pt"><defs><clipPath id="_clipPath_oviHlrPNmRXSCvJDNZZdQmVnF3eFg4e4"><rect width="13.823" height="22.148"/></clipPath></defs><g clip-path="url(#_clipPath_oviHlrPNmRXSCvJDNZZdQmVnF3eFg4e4)"><rect width="13.823" height="22.148" style="fill:rgb(0,0,0)" fill-opacity="0"/><path d=" M 13.823 6.912 C 13.823 3.093 10.731 0 6.912 0 C 3.093 0 0 3.093 0 6.912 C 0 10.731 6.912 22.148 6.912 22.148 C 6.912 22.148 13.823 10.724 13.823 6.912 L 13.823 6.912 Z  M 2.586 7.158 C 2.586 4.769 4.523 2.833 6.912 2.833 C 9.301 2.833 11.237 4.769 11.237 7.158 C 11.237 9.551 9.298 11.484 6.912 11.484 C 4.526 11.484 2.586 9.551 2.586 7.158 L 2.586 7.158 Z " fill="rgb(157,227,76)"/></g></svg>