<?xml version="1.0" encoding="UTF-8" standalone="no"?><!-- Generator: Gravit.io --><svg xmlns="http://www.w3.org/2000/svg" xmlns:xlink="http://www.w3.org/1999/xlink" style="isolation:isolate" viewBox="0 0 80 50" width="80pt" height="50pt"><defs><clipPath id="_clipPath_nSO1ERPv1PczGlkMxLnNMsJrVqkU8l8f"><rect width="80" height="50"/></clipPath></defs><g clip-path="url(#_clipPath_nSO1ERPv1PczGlkMxLnNMsJrVqkU8l8f)"><rect width="80" height="50" style="fill:rgb(0,0,0)" fill-opacity="0"/><path d=" M 40 0 C 31.93 0 25.212 5.657 23.482 13.213 C 18.652 13.829 14.689 17.334 13.488 22.053 C 6.01 22.329 0 28.455 0 36 C 0 43.72 6.28 50 14 50 L 21 50 C 21.552 50 22 49.552 22 49 C 22 48.448 21.552 48 21 48 L 14 48 C 7.36 48 2 42.64 2 36 C 2 29.36 7.36 24 14 24 C 13.97 24 14.032 24.01 14.19 24.01 L 15.023 24.01 L 15.025 23.998 C 15.567 23.984 15.999 23.542 16 23 C 15.999 22.62 15.784 22.273 15.443 22.105 C 16.646 18.121 20.197 15.302 24.35 15.033 L 24.922 14.998 C 24.948 15 24.974 15 25 15 C 25.552 15 26 14.552 26 14 C 26 13.65 25.817 13.326 25.518 13.145 C 27.219 6.732 33.04 2 40 2 C 46.433 2 51.888 6.048 54.025 11.725 L 54.033 11.746 C 54.011 11.829 54 11.914 54 12 C 54 12.552 54.448 13 55 13 C 55.475 13 55.884 12.665 55.979 12.2 C 56.646 12.074 57.322 12.007 58 12 C 64.64 12 70 17.36 70 24 C 70 25.051 69.852 26.07 69.592 27.057 L 69.33 28.047 L 70.326 28.283 C 74.724 29.333 78 33.27 78 38 C 78 43.535 73.535 48 68 48 L 61 48 C 60.448 48 60 48.448 60 49 C 60 49.552 60.448 50 61 50 L 68 50 C 74.615 50 80 44.615 80 38 C 80 32.672 76.46 28.259 71.64 26.7 C 71.82 25.82 72 24.94 72 24 C 72 16.28 65.72 10 58 10 C 57.132 10 56.314 10.153 55.498 10.307 C 52.885 4.277 46.981 0 40 0 Z  M 29 13 C 28.448 13 28 13.448 28 14 C 28 14.552 28.448 15 29 15 C 29.552 15 30 14.552 30 14 C 30 13.448 29.552 13 29 13 Z  M 33 15 C 32.448 15 32 15.448 32 16 C 32 16.552 32.448 17 33 17 C 33.552 17 34 16.552 34 16 C 34 15.448 33.552 15 33 15 Z  M 56 15 C 55.448 15 55 15.448 55 16 C 55 16.552 55.448 17 56 17 C 56.552 17 57 16.552 57 16 C 57 15.448 56.552 15 56 15 Z  M 36 18 C 35.448 18 35 18.448 35 19 C 35 19.552 35.448 20 36 20 C 36.552 20 37 19.552 37 19 C 37 18.448 36.552 18 36 18 Z  M 56 19 C 55.448 19 55 19.448 55 20 C 55 20.552 55.448 21 56 21 C 56.552 21 57 20.552 57 20 C 57 19.448 56.552 19 56 19 Z  M 19 22 C 18.448 22 18 22.448 18 23 C 18 23.552 18.448 24 19 24 C 19.552 24 20 23.552 20 23 C 20 22.448 19.552 22 19 22 Z  M 23 24 C 22.448 24 22 24.448 22 25 C 22 25.552 22.448 26 23 26 C 23.552 26 24 25.552 24 25 C 24 24.448 23.552 24 23 24 Z  M 35.99 27.99 C 35.583 27.99 35.217 28.237 35.064 28.614 C 34.91 28.991 35.001 29.423 35.293 29.707 L 40.586 35 L 35.293 40.293 C 35.033 40.544 34.929 40.916 35.02 41.266 C 35.112 41.615 35.385 41.888 35.734 41.98 C 36.084 42.071 36.456 41.967 36.707 41.707 L 42 36.414 L 47.293 41.707 C 47.544 41.967 47.916 42.071 48.266 41.98 C 48.615 41.888 48.888 41.615 48.98 41.266 C 49.071 40.916 48.967 40.544 48.707 40.293 L 43.414 35 L 48.707 29.707 C 49.003 29.42 49.092 28.98 48.931 28.6 C 48.77 28.22 48.393 27.977 47.98 27.99 C 47.72 27.998 47.474 28.107 47.293 28.293 L 42 33.586 L 36.707 28.293 C 36.519 28.099 36.26 27.99 35.99 27.99 Z  M 69 30 C 68.448 30 68 30.448 68 31 C 68 31.552 68.448 32 69 32 C 69.552 32 70 31.552 70 31 C 70 30.448 69.552 30 69 30 Z  M 67 33 C 66.448 33 66 33.448 66 34 C 66 34.552 66.448 35 67 35 C 67.552 35 68 34.552 68 34 C 68 33.448 67.552 33 67 33 Z  M 25 48 C 24.448 48 24 48.448 24 49 C 24 49.552 24.448 50 25 50 C 25.552 50 26 49.552 26 49 C 26 48.448 25.552 48 25 48 Z  M 29 48 C 28.448 48 28 48.448 28 49 C 28 49.552 28.448 50 29 50 C 29.552 50 30 49.552 30 49 C 30 48.448 29.552 48 29 48 Z  M 33 48 C 32.448 48 32 48.448 32 49 C 32 49.552 32.448 50 33 50 C 33.552 50 34 49.552 34 49 C 34 48.448 33.552 48 33 48 Z  M 37 48 C 36.448 48 36 48.448 36 49 C 36 49.552 36.448 50 37 50 C 37.552 50 38 49.552 38 49 C 38 48.448 37.552 48 37 48 Z  M 41 48 C 40.448 48 40 48.448 40 49 C 40 49.552 40.448 50 41 50 C 41.552 50 42 49.552 42 49 C 42 48.448 41.552 48 41 48 Z  M 45 48 C 44.448 48 44 48.448 44 49 C 44 49.552 44.448 50 45 50 C 45.552 50 46 49.552 46 49 C 46 48.448 45.552 48 45 48 Z  M 49 48 C 48.448 48 48 48.448 48 49 C 48 49.552 48.448 50 49 50 C 49.552 50 50 49.552 50 49 C 50 48.448 49.552 48 49 48 Z  M 53 48 C 52.448 48 52 48.448 52 49 C 52 49.552 52.448 50 53 50 C 53.552 50 54 49.552 54 49 C 54 48.448 53.552 48 53 48 Z  M 57 48 C 56.448 48 56 48.448 56 49 C 56 49.552 56.448 50 57 50 C 57.552 50 58 49.552 58 49 C 58 48.448 57.552 48 57 48 Z " fill="rgb(255,255,255)"/></g></svg>